# xmcd
#
# Track frame offsets:
#	150
#	30523
#	47191
#	59512
#	75744
#	87611
#	103441
#	118829
#	135450
#	150530
#	166709
#	182285
#
# Disc length: 2622 seconds
#
# Revision: 0
# Processed by: cddbd v1.4PL0 Copyright (c) Steve Scherf et al.
# Submitted via: audiograbber 1.81.01
#
DISCID=990a3c0c
DTITLE=Lando Fiorini - I Grandi Successi Originali cd1
DYEAR=1900
DGENRE=pop
TTITLE0=Barcarolo Romano
TTITLE1=Bella quanno te fece mamma tua
TTITLE2=Bonanotte amore mio
TTITLE3=Canta se la uoi cantar (Quanto sei...)
TTITLE4=Ciumachella de trastevere
TTITLE5=Roma nun fàla stupida stasera
TTITLE6=Tanto pe' cantà
TTITLE7=Cento campane
TTITLE8=Chitarra romana
TTITLE9=Canto dei carcerati
TTITLE10=Fio mio 
TTITLE11=Gratta gratta amico mio
EXTD=
EXTT0=
EXTT1=
EXTT2=
EXTT3=
EXTT4=
EXTT5=
EXTT6=
EXTT7=
EXTT8=
EXTT9=
EXTT10=
EXTT11=
PLAYORDER=
